<?xml version="1.0" encoding="UTF-8" standalone="no"?>
<!-- Created with Inkscape (http://www.inkscape.org/) -->

<svg
   xmlns:dc="http://purl.org/dc/elements/1.1/"
   xmlns:cc="http://creativecommons.org/ns#"
   xmlns:rdf="http://www.w3.org/1999/02/22-rdf-syntax-ns#"
   xmlns:svg="http://www.w3.org/2000/svg"
   xmlns="http://www.w3.org/2000/svg"
   xmlns:sodipodi="http://sodipodi.sourceforge.net/DTD/sodipodi-0.dtd"
   xmlns:inkscape="http://www.inkscape.org/namespaces/inkscape"
   width="950"
   height="500.36221"
   viewBox="0 0 950 500.36222"
   id="svg9812"
   version="1.1"
   inkscape:version="0.91 r"
   sodipodi:docname="Figure2-.svg">
  <defs
     id="defs9814">
    <clipPath
       id="clipPath10417"
       clipPathUnits="userSpaceOnUse">
      <path
         inkscape:connector-curvature="0"
         id="path10419"
         d="m 39.3,30.25 462.22,0 0,402.27 -462.22,0 0,-402.27 z" />
    </clipPath>
  </defs>
  <sodipodi:namedview
     id="base"
     pagecolor="#ffffff"
     bordercolor="#666666"
     borderopacity="1.0"
     inkscape:pageopacity="0.0"
     inkscape:pageshadow="2"
     inkscape:zoom="1.0460209"
     inkscape:cx="458.19945"
     inkscape:cy="315.03921"
     inkscape:document-units="px"
     inkscape:current-layer="layer1"
     showgrid="false"
     units="px"
     inkscape:window-width="1863"
     inkscape:window-height="1179"
     inkscape:window-x="1423"
     inkscape:window-y="21"
     inkscape:window-maximized="1" />
  <metadata
     id="metadata9817">
    <rdf:RDF>
      <cc:Work
         rdf:about="">
        <dc:format>image/svg+xml</dc:format>
        <dc:type
           rdf:resource="http://purl.org/dc/dcmitype/StillImage" />
        <dc:title></dc:title>
      </cc:Work>
    </rdf:RDF>
  </metadata>
  <g
     inkscape:label="Layer 1"
     inkscape:groupmode="layer"
     id="layer1"
     transform="translate(0,-552.00002)">
    <g
       id="g10389"
       transform="matrix(1.25,0,0,-1.25,18.682364,571.82514)" />
    <g
       id="g10391"
       transform="matrix(1.25,0,0,-1.25,18.682364,571.82514)" />
    <g
       id="g10393"
       transform="matrix(1.25,0,0,-1.25,18.682364,571.82514)" />
    <g
       id="g10395"
       transform="matrix(1.25,0,0,-1.25,18.682364,571.82514)" />
    <g
       id="g10397"
       transform="matrix(1.25,0,0,-1.25,18.682364,571.82514)" />
    <g
       id="g10399"
       transform="matrix(1.25,0,0,-1.25,18.682364,571.82514)" />
    <g
       id="g10401"
       transform="matrix(1.25,0,0,-1.25,18.682364,571.82514)" />
    <g
       id="g10403"
       transform="matrix(1.25,0,0,-1.25,18.682364,571.82514)" />
    <g
       id="g10405"
       transform="matrix(1.25,0,0,-1.25,18.682364,571.82514)" />
    <g
       id="g10411"
       transform="matrix(1.25,0,0,-1.25,18.682364,571.82514)" />
    <g
       clip-path="url(#clipPath10417)"
       id="g10415"
       transform="matrix(1.1935423,0,0,-0.99590768,37.876957,1003.8914)">
      <path
         inkscape:connector-curvature="0"
         id="path10421"
         style="fill:#ffffff;fill-opacity:1;fill-rule:nonzero;stroke:none"
         d="m 39.3,30.25 462.22,0 0,402.27 -462.22,0 0,-402.27 z" />
      <path
         inkscape:connector-curvature="0"
         id="path10423"
         style="fill:none;stroke:#ebebeb;stroke-width:0.52999997;stroke-linecap:butt;stroke-linejoin:round;stroke-miterlimit:10;stroke-dasharray:none;stroke-opacity:1"
         d="m 39.3,105.22 462.22,0" />
      <path
         inkscape:connector-curvature="0"
         id="path10425"
         style="fill:none;stroke:#ebebeb;stroke-width:0.52999997;stroke-linecap:butt;stroke-linejoin:round;stroke-miterlimit:10;stroke-dasharray:none;stroke-opacity:1"
         d="m 39.3,218.59 462.22,0" />
      <path
         inkscape:connector-curvature="0"
         id="path10427"
         style="fill:none;stroke:#ebebeb;stroke-width:0.52999997;stroke-linecap:butt;stroke-linejoin:round;stroke-miterlimit:10;stroke-dasharray:none;stroke-opacity:1"
         d="m 39.3,331.95 462.22,0" />
      <path
         inkscape:connector-curvature="0"
         id="path10429"
         style="fill:none;stroke:#ebebeb;stroke-width:0.52999997;stroke-linecap:butt;stroke-linejoin:round;stroke-miterlimit:10;stroke-dasharray:none;stroke-opacity:1"
         d="m 112.83,30.25 0,402.27" />
      <path
         inkscape:connector-curvature="0"
         id="path10431"
         style="fill:none;stroke:#ebebeb;stroke-width:0.52999997;stroke-linecap:butt;stroke-linejoin:round;stroke-miterlimit:10;stroke-dasharray:none;stroke-opacity:1"
         d="m 217.88,30.25 0,402.27" />
      <path
         inkscape:connector-curvature="0"
         id="path10433"
         style="fill:none;stroke:#ebebeb;stroke-width:0.52999997;stroke-linecap:butt;stroke-linejoin:round;stroke-miterlimit:10;stroke-dasharray:none;stroke-opacity:1"
         d="m 322.93,30.25 0,402.27" />
      <path
         inkscape:connector-curvature="0"
         id="path10435"
         style="fill:none;stroke:#ebebeb;stroke-width:0.52999997;stroke-linecap:butt;stroke-linejoin:round;stroke-miterlimit:10;stroke-dasharray:none;stroke-opacity:1"
         d="m 427.99,30.25 0,402.27" />
      <path
         inkscape:connector-curvature="0"
         id="path10437"
         style="fill:none;stroke:#ebebeb;stroke-width:1.07000005;stroke-linecap:butt;stroke-linejoin:round;stroke-miterlimit:10;stroke-dasharray:none;stroke-opacity:1"
         d="m 39.3,48.54 462.22,0" />
      <path
         inkscape:connector-curvature="0"
         id="path10439"
         style="fill:none;stroke:#ebebeb;stroke-width:1.07000005;stroke-linecap:butt;stroke-linejoin:round;stroke-miterlimit:10;stroke-dasharray:none;stroke-opacity:1"
         d="m 39.3,161.9 462.22,0" />
      <path
         inkscape:connector-curvature="0"
         id="path10441"
         style="fill:none;stroke:#ebebeb;stroke-width:1.07000005;stroke-linecap:butt;stroke-linejoin:round;stroke-miterlimit:10;stroke-dasharray:none;stroke-opacity:1"
         d="m 39.3,275.27 462.22,0" />
      <path
         inkscape:connector-curvature="0"
         id="path10443"
         style="fill:none;stroke:#ebebeb;stroke-width:1.07000005;stroke-linecap:butt;stroke-linejoin:round;stroke-miterlimit:10;stroke-dasharray:none;stroke-opacity:1"
         d="m 39.3,388.64 462.22,0" />
      <path
         inkscape:connector-curvature="0"
         id="path10445"
         style="fill:none;stroke:#ebebeb;stroke-width:1.07000005;stroke-linecap:butt;stroke-linejoin:round;stroke-miterlimit:10;stroke-dasharray:none;stroke-opacity:1"
         d="m 60.31,30.25 0,402.27" />
      <path
         inkscape:connector-curvature="0"
         id="path10447"
         style="fill:none;stroke:#ebebeb;stroke-width:1.07000005;stroke-linecap:butt;stroke-linejoin:round;stroke-miterlimit:10;stroke-dasharray:none;stroke-opacity:1"
         d="m 165.36,30.25 0,402.27" />
      <path
         inkscape:connector-curvature="0"
         id="path10449"
         style="fill:none;stroke:#ebebeb;stroke-width:1.07000005;stroke-linecap:butt;stroke-linejoin:round;stroke-miterlimit:10;stroke-dasharray:none;stroke-opacity:1"
         d="m 270.41,30.25 0,402.27" />
      <path
         inkscape:connector-curvature="0"
         id="path10451"
         style="fill:none;stroke:#ebebeb;stroke-width:1.07000005;stroke-linecap:butt;stroke-linejoin:round;stroke-miterlimit:10;stroke-dasharray:none;stroke-opacity:1"
         d="m 375.46,30.25 0,402.27" />
      <path
         inkscape:connector-curvature="0"
         id="path10453"
         style="fill:none;stroke:#ebebeb;stroke-width:1.07000005;stroke-linecap:butt;stroke-linejoin:round;stroke-miterlimit:10;stroke-dasharray:none;stroke-opacity:1"
         d="m 480.51,30.25 0,402.27" />
      <path
         inkscape:connector-curvature="0"
         id="path10455"
         style="fill:none;stroke:#ff0000;stroke-width:1.07000005;stroke-linecap:butt;stroke-linejoin:round;stroke-miterlimit:1;stroke-dasharray:none;stroke-opacity:1"
         d="m 60.31,66.82 42.02,91.42 42.02,164.57 42.02,91.43 42.02,-91.43 42.02,-274.27 42.02,0 42.02,0 42.02,0 42.02,0 42.02,0" />
      <path
         inkscape:connector-curvature="0"
         id="path10457"
         style="fill:none;stroke:#0000ff;stroke-width:1.07000005;stroke-linecap:butt;stroke-linejoin:round;stroke-miterlimit:1;stroke-dasharray:none;stroke-opacity:1"
         d="m 60.31,66.82 42.02,17.7 42.02,29.49 42.02,64.29 42.02,68.42 42.02,40.7 42.02,-21.82 42.02,-73.14 42.02,-78.45 42.02,-47.19 42.02,-15.93" />
      <path
         inkscape:connector-curvature="0"
         id="path10459"
         style="fill:none;stroke:#333333;stroke-width:1.07000005;stroke-linecap:round;stroke-linejoin:round;stroke-miterlimit:10;stroke-dasharray:none;stroke-opacity:1"
         d="m 39.3,30.25 462.22,0 0,402.27 -462.22,0 0,-402.27 z" />
    </g>
    <g
       id="g10461"
       transform="matrix(1.25,0,0,-1.25,18.682364,571.82514)" />
    <g
       id="g10463"
       transform="matrix(1.25,0,0,-1.25,18.682364,571.82514)" />
    <g
       id="g10465"
       transform="matrix(1.25,0,0,-1.25,18.682364,571.82514)" />
    <g
       id="g10467"
       transform="matrix(1.25,0,0,-1.25,18.682364,571.82514)" />
    <g
       id="g10469"
       transform="matrix(1.25,0,0,-1.25,18.682364,571.82514)" />
    <g
       id="g10471"
       transform="matrix(1.25,0,0,-1.25,18.682364,571.82514)" />
    <g
       id="g10473"
       transform="matrix(1.25,0,0,-1.25,18.682364,571.82514)" />
    <g
       id="g10475"
       transform="matrix(1.25,0,0,-1.25,18.682364,571.82514)" />
    <g
       id="g10477"
       transform="matrix(1.25,0,0,-1.25,18.682364,571.82514)" />
    <g
       id="g10479"
       transform="matrix(1.25,0,0,-1.25,18.682364,571.82514)" />
    <g
       id="g10481"
       transform="matrix(1.25,0,0,-1.25,18.682364,571.82514)" />
    <g
       id="g10483"
       transform="matrix(1.25,0,0,-1.25,18.682364,571.82514)" />
    <g
       id="g10485"
       transform="matrix(1.25,0,0,-1.25,18.682364,571.82514)" />
    <g
       id="g10487"
       transform="matrix(1.25,0,0,-1.25,18.682364,571.82514)" />
    <g
       id="g10489"
       transform="matrix(1.25,0,0,-1.25,18.682364,571.82514)" />
    <g
       id="g10509"
       transform="matrix(1.25,0,0,-1.25,18.682364,571.82514)" />
    <g
       id="g10511"
       transform="matrix(1.1935423,0,0,-0.99590768,37.876957,1003.8914)">
      <path
         d="m 36.56,48.54 2.74,0"
         style="fill:none;stroke:#333333;stroke-width:1.07000005;stroke-linecap:butt;stroke-linejoin:round;stroke-miterlimit:10;stroke-dasharray:none;stroke-opacity:1"
         id="path10513"
         inkscape:connector-curvature="0" />
      <path
         d="m 36.56,161.9 2.74,0"
         style="fill:none;stroke:#333333;stroke-width:1.07000005;stroke-linecap:butt;stroke-linejoin:round;stroke-miterlimit:10;stroke-dasharray:none;stroke-opacity:1"
         id="path10515"
         inkscape:connector-curvature="0" />
      <path
         d="m 36.56,275.27 2.74,0"
         style="fill:none;stroke:#333333;stroke-width:1.07000005;stroke-linecap:butt;stroke-linejoin:round;stroke-miterlimit:10;stroke-dasharray:none;stroke-opacity:1"
         id="path10517"
         inkscape:connector-curvature="0" />
      <path
         d="m 36.56,388.64 2.74,0"
         style="fill:none;stroke:#333333;stroke-width:1.07000005;stroke-linecap:butt;stroke-linejoin:round;stroke-miterlimit:10;stroke-dasharray:none;stroke-opacity:1"
         id="path10519"
         inkscape:connector-curvature="0" />
    </g>
    <g
       id="g10521"
       transform="matrix(1.25,0,0,-1.25,18.682364,571.82514)" />
    <g
       id="g10523"
       transform="matrix(1.25,0,0,-1.25,18.682364,571.82514)" />
    <g
       id="g10525"
       transform="matrix(1.25,0,0,-1.25,18.682364,571.82514)" />
    <g
       id="g10527"
       transform="matrix(1.25,0,0,-1.25,18.682364,571.82514)" />
    <g
       id="g10529"
       transform="matrix(1.25,0,0,-1.25,18.682364,571.82514)" />
    <g
       id="g10531"
       transform="matrix(1.25,0,0,-1.25,18.682364,571.82514)" />
    <g
       id="g10533"
       transform="matrix(1.25,0,0,-1.25,18.682364,571.82514)" />
    <g
       id="g10535"
       transform="matrix(1.25,0,0,-1.25,18.682364,571.82514)" />
    <g
       id="g10537"
       transform="matrix(1.25,0,0,-1.25,18.682364,571.82514)" />
    <path
       inkscape:connector-curvature="0"
       id="path10541"
       style="fill:none;stroke:#333333;stroke-width:1.16657388;stroke-linecap:butt;stroke-linejoin:round;stroke-miterlimit:10;stroke-dasharray:none;stroke-opacity:1"
       d="m 109.85949,976.49392 0,-2.72879" />
    <path
       inkscape:connector-curvature="0"
       id="path10545"
       style="fill:none;stroke:#333333;stroke-width:1.16657388;stroke-linecap:butt;stroke-linejoin:round;stroke-miterlimit:10;stroke-dasharray:none;stroke-opacity:1"
       d="m 360.62273,976.49392 0,-2.72879" />
    <path
       inkscape:connector-curvature="0"
       id="path10549"
       style="fill:none;stroke:#333333;stroke-width:1.16657388;stroke-linecap:butt;stroke-linejoin:round;stroke-miterlimit:10;stroke-dasharray:none;stroke-opacity:1"
       d="m 611.38596,976.49392 0,-2.72879" />
    <g
       id="g10551"
       transform="matrix(1.25,0,0,-1.25,18.682364,571.82514)" />
    <g
       id="g10575"
       transform="matrix(1.25,0,0,-1.25,18.682364,571.82514)" />
    <g
       id="g10577"
       transform="matrix(1.25,0,0,-1.25,18.682364,571.82514)" />
    <g
       id="g10579"
       transform="matrix(1.25,0,0,-1.25,18.682364,571.82514)" />
    <g
       id="g10581"
       transform="matrix(1.25,0,0,-1.25,18.682364,571.82514)" />
    <g
       id="g10583"
       transform="matrix(1.25,0,0,-1.25,18.682364,571.82514)" />
    <g
       id="g10591"
       transform="matrix(1.25,0,0,-1.25,18.682364,571.82514)" />
    <g
       id="g10599"
       transform="matrix(1.25,0,0,-1.25,18.682364,571.82514)" />
    <g
       id="g10601"
       transform="matrix(1.25,0,0,-1.25,18.682364,571.82514)" />
    <g
       id="g10603"
       transform="matrix(1.25,0,0,-1.25,18.682364,571.82514)" />
    <g
       id="g10605"
       transform="matrix(1.25,0,0,-1.25,18.682364,571.82514)" />
    <g
       id="g10607"
       transform="matrix(1.25,0,0,-1.25,18.682364,571.82514)" />
    <g
       id="g10609"
       transform="matrix(1.25,0,0,-1.25,18.682364,571.82514)" />
    <g
       id="g10611"
       transform="matrix(1.25,0,0,-1.25,18.682364,571.82514)" />
    <g
       id="g10613"
       transform="matrix(1.25,0,0,-1.25,18.682364,571.82514)" />
    <g
       id="g10615"
       transform="matrix(1.25,0,0,-1.25,18.682364,571.82514)" />
    <g
       id="g10617"
       transform="matrix(1.25,0,0,-1.25,18.682364,571.82514)" />
    <text
       xml:space="preserve"
       style="font-style:normal;font-weight:normal;font-size:17.10022926px;line-height:128.99999619%;font-family:sans-serif;letter-spacing:0px;word-spacing:0px;fill:#000000;fill-opacity:1;stroke:none;stroke-width:1px;stroke-linecap:butt;stroke-linejoin:miter;stroke-opacity:1"
       x="105.51588"
       y="974.55872"
       id="text10848"
       sodipodi:linespacing="129%"
       transform="scale(0.97715596,1.0233781)"><tspan
         sodipodi:role="line"
         id="tspan10850"
         x="105.51588"
         y="974.55872">0.0                                         5.0                                        10.0</tspan></text>
    <text
       xml:space="preserve"
       style="font-style:normal;font-weight:normal;font-size:17.10022926px;line-height:128.99999619%;font-family:sans-serif;letter-spacing:0px;word-spacing:0px;fill:#000000;fill-opacity:1;stroke:none;stroke-width:1px;stroke-linecap:butt;stroke-linejoin:miter;stroke-opacity:1"
       x="50.411777"
       y="606.92767"
       id="text10857"
       sodipodi:linespacing="129%"
       transform="scale(0.97715596,1.0233781)"><tspan
         sodipodi:role="line"
         id="tspan10859"
         x="50.411777"
         y="606.92767">0.3</tspan><tspan
         sodipodi:role="line"
         x="50.411777"
         y="628.98694"
         id="tspan10861" /><tspan
         sodipodi:role="line"
         x="50.411777"
         y="651.04626"
         id="tspan10863" /><tspan
         sodipodi:role="line"
         x="50.411777"
         y="673.10553"
         id="tspan10865" /><tspan
         sodipodi:role="line"
         x="50.411777"
         y="695.16486"
         id="tspan10867" /><tspan
         sodipodi:role="line"
         x="50.411777"
         y="717.22412"
         id="tspan10869">0.2</tspan><tspan
         sodipodi:role="line"
         x="50.411777"
         y="739.28345"
         id="tspan10871" /><tspan
         sodipodi:role="line"
         x="50.411777"
         y="761.34271"
         id="tspan10873" /><tspan
         sodipodi:role="line"
         x="50.411777"
         y="783.40204"
         id="tspan10875" /><tspan
         sodipodi:role="line"
         x="50.411777"
         y="805.4613"
         id="tspan10877" /><tspan
         sodipodi:role="line"
         x="50.411777"
         y="827.52063"
         id="tspan10879">0.1</tspan><tspan
         sodipodi:role="line"
         x="50.411777"
         y="849.5799"
         id="tspan10881" /><tspan
         sodipodi:role="line"
         x="50.411777"
         y="871.63922"
         id="tspan10883" /><tspan
         sodipodi:role="line"
         x="50.411777"
         y="893.69849"
         id="tspan10885" /><tspan
         sodipodi:role="line"
         x="50.411777"
         y="915.75781"
         id="tspan10887" /><tspan
         sodipodi:role="line"
         x="50.411777"
         y="937.81708"
         id="tspan10889">0.0</tspan></text>
    <text
       xml:space="preserve"
       style="font-style:normal;font-weight:normal;font-size:18.75px;line-height:128.99999619%;font-family:sans-serif;letter-spacing:0px;word-spacing:0px;fill:#000000;fill-opacity:1;stroke:none;stroke-width:1px;stroke-linecap:butt;stroke-linejoin:miter;stroke-opacity:1"
       x="-901.29224"
       y="30.123032"
       id="text10932"
       sodipodi:linespacing="129%"
       transform="matrix(0,-1,1,0,0,0)"><tspan
         sodipodi:role="line"
         id="tspan10934"
         x="-901.29224"
         y="30.123032">Fraction of VlsE variants</tspan></text>
    <text
       xml:space="preserve"
       style="font-style:normal;font-weight:normal;font-size:18.75px;line-height:128.99999619%;font-family:sans-serif;letter-spacing:0px;word-spacing:0px;fill:#000000;fill-opacity:1;stroke:none;stroke-width:1px;stroke-linecap:butt;stroke-linejoin:miter;stroke-opacity:1"
       x="171.40627"
       y="1032.4081"
       id="text10932-9"
       sodipodi:linespacing="129%"><tspan
         sodipodi:role="line"
         id="tspan10934-1"
         x="171.40627"
         y="1032.4081">Number of recombination events (<tspan
   style="font-style:italic;font-variant:normal;font-weight:normal;font-stretch:normal;font-family:sans-serif;-inkscape-font-specification:'sans-serif Italic'"
   id="tspan10954">n<tspan
   style="font-size:64.99999762%;baseline-shift:sub"
   id="tspan10956">r</tspan></tspan>)</tspan></text>
    <text
       xml:space="preserve"
       style="font-style:normal;font-weight:normal;font-size:17.5px;line-height:128.99999619%;font-family:sans-serif;letter-spacing:0px;word-spacing:0px;fill:#000000;fill-opacity:1;stroke:none;stroke-width:1px;stroke-linecap:butt;stroke-linejoin:miter;stroke-opacity:1"
       x="693.44287"
       y="602.86444"
       id="text10960"
       sodipodi:linespacing="129%"><tspan
         sodipodi:role="line"
         id="tspan10962"
         x="693.44287"
         y="602.86444"
         style="fill:#ff0000;fill-opacity:1">nr from the original VlsE</tspan><tspan
         sodipodi:role="line"
         x="693.44287"
         y="625.43945"
         id="tspan10964" /><tspan
         sodipodi:role="line"
         x="693.44287"
         y="648.01447"
         id="tspan10966"
         style="fill:#0000ff;fill-opacity:1">nr to any VlsE variant</tspan></text>
    <rect
       style="opacity:1;fill:#ff0200;fill-opacity:1;stroke:none;stroke-width:1;stroke-miterlimit:10;stroke-dasharray:none;stroke-dashoffset:0;stroke-opacity:1"
       id="rect10968"
       width="20.07608"
       height="2.8680115"
       x="661.89471"
       y="597.21637" />
    <rect
       style="opacity:1;fill:#0002ff;fill-opacity:1;stroke:none;stroke-width:1;stroke-miterlimit:10;stroke-dasharray:none;stroke-dashoffset:0;stroke-opacity:1"
       id="rect10968-2"
       width="20.07608"
       height="2.8680115"
       x="661.89502"
       y="641.67059" />
  </g>
</svg>
